<?xml version="1.0" encoding="utf-8"?>
<!-- Generator: Adobe Illustrator 23.0.1, SVG Export Plug-In . SVG Version: 6.00 Build 0)  -->
<svg version="1.1" id="Layer_1" xmlns="http://www.w3.org/2000/svg" xmlns:xlink="http://www.w3.org/1999/xlink" x="0px" y="0px"
	 viewBox="0 0 350 513" style="enable-background:new 0 0 350 513;" xml:space="preserve">
<style type="text/css">
	.st0{fill:#8b67d3;}
	.st1{fill:#FFFFFF;}
	.st2{font-family:'Gotham-Book';}
	.st3{font-size:13.4704px;}
	.st4{letter-spacing:37;}
	.st5{font-family:'Gotham-Bold';}
	.st6{font-size:19.0831px;}
	.st7{letter-spacing:13;}
	.st8{letter-spacing:44;}
	.st9{letter-spacing:15;}
	.st10{opacity:0.5;}
	.st11{clip-path:url(#SVGID_2_);}
	.st12{clip-path:url(#SVGID_4_);}
	.st13{clip-path:url(#SVGID_6_);}
	.st14{opacity:0.7;}
	.st15{filter:url(#Adobe_OpacityMaskFilter);}
	.st16{enable-background:new    ;}
	.st17{clip-path:url(#SVGID_10_);}
	.st18{clip-path:url(#SVGID_13_);}
	.st19{clip-path:url(#SVGID_15_);}
	.st20{clip-path:url(#SVGID_10_);mask:url(#SVGID_11_);}
	.st21{clip-path:url(#SVGID_19_);}
	.st22{clip-path:url(#SVGID_21_);}
	.st23{clip-path:url(#SVGID_23_);}
	.st24{filter:url(#Adobe_OpacityMaskFilter_1_);}
	.st25{clip-path:url(#SVGID_28_);}
	.st26{clip-path:url(#SVGID_30_);}
	.st27{clip-path:url(#SVGID_10_);mask:url(#SVGID_26_);}
	.st28{clip-path:url(#SVGID_34_);}
	.st29{clip-path:url(#SVGID_36_);}
	.st30{clip-path:url(#SVGID_38_);}
	.st31{filter:url(#Adobe_OpacityMaskFilter_2_);}
	.st32{clip-path:url(#SVGID_43_);}
	.st33{clip-path:url(#SVGID_45_);}
	.st34{mask:url(#SVGID_41_);}
	.st35{filter:url(#Adobe_OpacityMaskFilter_3_);}
	.st36{clip-path:url(#SVGID_49_);}
	.st37{clip-path:url(#SVGID_51_);}
	.st38{clip-path:url(#SVGID_53_);}
	.st39{clip-path:url(#SVGID_57_);}
	.st40{clip-path:url(#SVGID_59_);}
	.st41{clip-path:url(#SVGID_61_);}
	.st42{filter:url(#Adobe_OpacityMaskFilter_4_);}
	.st43{clip-path:url(#SVGID_66_);}
	.st44{clip-path:url(#SVGID_68_);}
	.st45{mask:url(#SVGID_64_);}
	.st46{filter:url(#Adobe_OpacityMaskFilter_5_);}
	.st47{clip-path:url(#SVGID_72_);}
	.st48{clip-path:url(#SVGID_74_);}
	.st49{clip-path:url(#SVGID_76_);}
	.st50{clip-path:url(#SVGID_80_);}
	.st51{clip-path:url(#SVGID_82_);}
	.st52{clip-path:url(#SVGID_84_);}
	.st53{clip-path:url(#SVGID_88_);}
	.st54{fill:none;stroke:#00FF00;stroke-miterlimit:10;}
	.st55{fill:none;stroke:#FFFFFF;stroke-miterlimit:10;}
	.st56{opacity:0.3;}
	.st57{fill:none;stroke:#FFFFFF;stroke-width:2;stroke-miterlimit:10;}
	.st58{fill:8b67d3;}
	.st59{fill:#479ACB;}
	.st60{fill:#2D6181;}
	.st61{font-size:11.3026px;}
	.st62{font-size:16.012px;}
	.st63{letter-spacing:11;}
</style>
<path class="st0" d="M397.7-6.6L194.3-7L-11.2-7.4c-16.7,0-30.2,10.3-30.2,23.1l0.6,513.2c0,12.7,13.5,23.1,30.2,23.1h205.5h203.4
	c16.7,0,30.2-10.3,30.2-23.1l-0.6-512.5C427.9,3.7,414.4-6.6,397.7-6.6"/>
<path class="st1" d="M174.9,181.2c-7.2,0-14-1.3-19.6-3.7L21,118.7C8,113.1-1.4,99-1.4,85.4l-0.4-47.3C-1.8,21.9,12,8.7,29,8.7
	h292.1c17,0,30.8,13.2,30.8,29.4l0.4,47.3c0,13.7-9.5,27.7-22.5,33.3l-135.5,58.8C188.9,180,182.1,181.2,174.9,181.2"/>
<text transform="matrix(1 0 0 1 130.7305 312.9438)" class="st1 st2 st3"> </text>
<text transform="matrix(1 0 0 1 130.7305 343.9873)" class="st1 st2 st3"> </text>
<text transform="matrix(1 0 0 1 88.9121 406.0752)"><tspan x="0" y="0" class="st1 st2 st3 st4"> </tspan><tspan x="41.8" y="0" class="st1 st2 st3"> </tspan></text>
<text transform="matrix(1 0 0 1 130.7305 437.1191)" class="st1 st5 st6"> </text>
<text transform="matrix(1 0 0 1 65.0581 408.1621)"><tspan x="0" y="0" class="st1 st2 st3 st7"> </tspan><tspan x="17.2" y="0" class="st1 st2 st3 st8"> </tspan><tspan x="65.7" y="0" class="st1 st2 st3"> </tspan></text>
<text transform="matrix(1 0 0 1 62.7148 451.3467)"><tspan x="0" y="0" class="st1 st2 st3 st9"> </tspan><tspan x="19.6" y="0" class="st1 st2 st3 st8"> </tspan><tspan x="68" y="0" class="st1 st2 st3"> </tspan></text>
<text transform="matrix(1 0 0 1 75.0889 101.9764)" class="st1 st2 st61"> </text>
<text transform="matrix(1 0 0 1 75.0889 128.0238)" class="st1 st2 st61"> </text>
<text transform="matrix(1 0 0 1 75.0889 206.1674)" class="st1 st5 st62"> </text>
<text transform="matrix(1 0 0 1 19.9844 232.2152)"><tspan x="0" y="0" class="st1 st2 st61 st63"> </tspan><tspan x="14.5" y="0" class="st1 st2 st61 st4"> </tspan><tspan x="55.1" y="0" class="st1 st2 st61"> </tspan></text>
<text transform="matrix(1 0 0 1 18.0186 268.4496)"><tspan x="0" y="0" class="st1 st2 st61 st7"> </tspan><tspan x="16.4" y="0" class="st1 st2 st61 st4"> </tspan><tspan x="57.1" y="0" class="st1 st2 st61"> </tspan></text>
<path class="st1" d="M397.7-464l-203.4-0.4l-205.5-0.4c-16.7,0-30.2,9.4-30.2,20.9l0.6,464.7c0,11.5,13.5,20.9,30.2,20.9h205.5
	h203.4c16.7,0,30.2-9.4,30.2-20.9l-0.6-464C427.9-454.7,414.4-464,397.7-464"/>
</svg>
