<svg width="15" height="16" viewBox="0 0 15 16" fill="none" xmlns="http://www.w3.org/2000/svg" style="margin-top: -2px;"><path d="M12.8438 0.28183H2.15625C1.84142 0.28219 1.53958 0.407417 1.31696 0.630038C1.09434 0.85266 0.96911 1.1545 0.96875 1.46933V14.5318C0.96911 14.8467 1.09434 15.1485 1.31696 15.3711C1.53958 15.5937 1.84142 15.719 2.15625 15.7193H12.8438C13.1586 15.719 13.4604 15.5937 13.683 15.3711C13.9057 15.1485 14.0309 14.8467 14.0312 14.5318V1.46933C14.0309 1.1545 13.9057 0.85266 13.683 0.630038C13.4604 0.407417 13.1586 0.28219 12.8438 0.28183V0.28183ZM4.53125 13.3438C4.3551 13.3438 4.18291 13.2915 4.03645 13.1937C3.88998 13.0958 3.77583 12.9567 3.70842 12.794C3.64101 12.6312 3.62337 12.4521 3.65774 12.2794C3.6921 12.1066 3.77693 11.9479 3.90148 11.8234C4.02604 11.6988 4.18473 11.614 4.3575 11.5796C4.53026 11.5452 4.70934 11.5629 4.87208 11.6303C5.03482 11.6977 5.17391 11.8119 5.27178 11.9583C5.36964 12.1048 5.42188 12.277 5.42188 12.4531C5.4216 12.6893 5.32768 12.9156 5.16072 13.0826C4.99375 13.2496 4.76738 13.3435 4.53125 13.3438V13.3438ZM4.53125 10.375C4.3551 10.375 4.18291 10.3228 4.03645 10.2249C3.88998 10.127 3.77583 9.98794 3.70842 9.8252C3.64101 9.66246 3.62337 9.48339 3.65774 9.31062C3.6921 9.13786 3.77693 8.97916 3.90148 8.85461C4.02604 8.73005 4.18473 8.64523 4.3575 8.61086C4.53026 8.5765 4.70934 8.59414 4.87208 8.66155C5.03482 8.72895 5.17391 8.84311 5.27178 8.98957C5.36964 9.13603 5.42188 9.30823 5.42188 9.48438C5.4216 9.7205 5.32768 9.94688 5.16072 10.1138C4.99375 10.2808 4.76738 10.3747 4.53125 10.375V10.375ZM7.5 13.3438C7.32385 13.3437 7.15166 13.2915 7.0052 13.1937C6.85873 13.0958 6.74458 12.9567 6.67717 12.794C6.60976 12.6312 6.59212 12.4521 6.62649 12.2794C6.66085 12.1066 6.74568 11.9479 6.87023 11.8234C6.99479 11.6988 7.15348 11.614 7.32625 11.5796C7.49901 11.5452 7.67809 11.5629 7.84083 11.6303C8.00357 11.6977 8.14266 11.8119 8.24053 11.9583C8.33839 12.1048 8.39063 12.277 8.39062 12.4531C8.39035 12.6893 8.29643 12.9156 8.12947 13.0826C7.9625 13.2496 7.73613 13.3435 7.5 13.3438V13.3438ZM7.5 10.375C7.32385 10.375 7.15166 10.3228 7.0052 10.2249C6.85873 10.127 6.74458 9.98794 6.67717 9.8252C6.60976 9.66246 6.59212 9.48339 6.62649 9.31062C6.66085 9.13786 6.74568 8.97916 6.87023 8.85461C6.99479 8.73005 7.15348 8.64523 7.32625 8.61086C7.49901 8.5765 7.67809 8.59414 7.84083 8.66155C8.00357 8.72895 8.14266 8.84311 8.24053 8.98957C8.33839 9.13603 8.39062 9.30823 8.39062 9.48438C8.39035 9.7205 8.29643 9.94688 8.12947 10.1138C7.9625 10.2808 7.73613 10.3747 7.5 10.375V10.375ZM10.4688 13.3438C10.2926 13.3437 10.1204 13.2915 9.97395 13.1937C9.82748 13.0958 9.71333 12.9567 9.64592 12.794C9.57851 12.6312 9.56087 12.4521 9.59524 12.2794C9.6296 12.1066 9.71443 11.9479 9.83898 11.8234C9.96354 11.6988 10.1222 11.614 10.295 11.5796C10.4678 11.5452 10.6468 11.5629 10.8096 11.6303C10.9723 11.6977 11.1114 11.8119 11.2093 11.9583C11.3071 12.1048 11.3594 12.277 11.3594 12.4531C11.3591 12.6893 11.2652 12.9156 11.0982 13.0826C10.9313 13.2496 10.7049 13.3435 10.4688 13.3438V13.3438ZM10.4688 10.375C10.2926 10.375 10.1204 10.3228 9.97395 10.2249C9.82748 10.127 9.71333 9.98794 9.64592 9.8252C9.57851 9.66246 9.56087 9.48339 9.59524 9.31062C9.6296 9.13786 9.71443 8.97916 9.83898 8.85461C9.96354 8.73005 10.1222 8.64523 10.295 8.61086C10.4678 8.5765 10.6468 8.59414 10.8096 8.66155C10.9723 8.72895 11.1114 8.84311 11.2093 8.98957C11.3071 9.13603 11.3594 9.30823 11.3594 9.48438C11.3591 9.7205 11.2652 9.94688 11.0982 10.1138C10.9313 10.2808 10.7049 10.3747 10.4688 10.375V10.375ZM11.6562 6.21875C11.6563 6.29672 11.6409 6.37393 11.6111 6.44597C11.5812 6.51801 11.5375 6.58346 11.4823 6.6386C11.4272 6.69373 11.3618 6.73747 11.2897 6.76731C11.2177 6.79715 11.1405 6.8125 11.0625 6.8125H3.9375C3.85953 6.8125 3.78232 6.79715 3.71028 6.76731C3.63824 6.73747 3.57279 6.69373 3.51765 6.6386C3.46252 6.58346 3.41878 6.51801 3.38894 6.44597C3.3591 6.37393 3.34375 6.29672 3.34375 6.21875V3.25C3.34375 3.17203 3.3591 3.09482 3.38894 3.02278C3.41878 2.95074 3.46252 2.88529 3.51765 2.83015C3.57279 2.77502 3.63824 2.73128 3.71028 2.70144C3.78232 2.6716 3.85953 2.65625 3.9375 2.65625H11.0625C11.1405 2.65625 11.2177 2.6716 11.2897 2.70144C11.3618 2.73128 11.4272 2.77502 11.4823 2.83015C11.5375 2.88529 11.5812 2.95074 11.6111 3.02278C11.6409 3.09482 11.6563 3.17203 11.6562 3.25V6.21875Z" fill="#312F30"></path></svg>